# xmcd
#
# Track frame offsets:
#	150
#	12374
#	26030
#	40125
#
# Disc length: 710 seconds
#
# Revision: 1
# Processed by: cddbd v1.5.2PL0 Copyright (c) Steve Scherf et al.
# Submitted via: EasyCDDAExtractor 12.0.0.1
#
DISCID=2802c404
DTITLE=Neet Kepot Te Kriege - Es 't Glaas Mèr Vol Is
DYEAR=1900
DGENRE=Blues
TTITLE0=Es 't Glaas Mèr Vol Is
TTITLE1=Lekker Möpke
TTITLE2=Soppegreun
TTITLE3=Lek Miech De Zök
EXTD=
EXTT0=Performed by G. Love and Special Sauce\nWritten by jack johnson,   Produ
EXTT0=ced by T-Ray
EXTT1=Performed by G. Love and Special Sauce\nWritten by jack johnson,   Produ
EXTT1=ced by T-Ray\n     *re-produced and remixed by King Britt for Sylkscreen
EXTT1=Productions.\n     *mixed By Joe "The Butcher" Nicolo
EXTT2=Performed by G. Love and Special Sauce\nWritten by jack johnson,   Produ
EXTT2=ced by T-Ray\n     *re-produced and remixed by King Britt for Sylkscreen
EXTT2=Productions.\n     *mixed By Joe "The Butcher" Nicolo
EXTT3=Performed by G. Love\nWritten by jack johnson,   Produced by T-Ray\n    
EXTT3=*re-produced and remixed by King Britt for Sylkscreen Productions.\n   
EXTT3=*mixed By Joe "The Butcher" Nicolo
PLAYORDER=
